HIERARCHY
ROOT SpineBase
{
  OFFSET 0.000000 0.000000 0.000000
  CHANNELS 6 Xposition Yposition Zposition Zrotation Xrotation Yrotation
  JOINT SpineMid
  {
    OFFSET -0.000000 32.634945 -0.000000
    CHANNELS 3 Zrotation Xrotation Yrotation
    JOINT SpineShoulder
    {
      OFFSET -0.177769 24.319913 -0.746569
      CHANNELS 3 Zrotation Xrotation Yrotation
      JOINT Neck
      {
        OFFSET -0.161253 8.081634 -0.599655
        CHANNELS 3 Zrotation Xrotation Yrotation
        JOINT Head
        {
          OFFSET 0.978153 10.522371 3.323818
          CHANNELS 3 Zrotation Xrotation Yrotation
          End Site
          {
            OFFSET 0 0 0
          }
        }
      }
      JOINT ShoulderLeft
      {
        OFFSET -14.222362 -6.401992 1.152862
        CHANNELS 3 Zrotation Xrotation Yrotation
        JOINT ElbowLeft
        {
          OFFSET -5.152389 -23.594046 6.501711
          CHANNELS 3 Zrotation Xrotation Yrotation
          JOINT WristLeft
          {
            OFFSET 3.416160 -23.712077 7.206890
            CHANNELS 3 Zrotation Xrotation Yrotation
            JOINT HandLeft
            {
              OFFSET 0.010363 -3.755922 1.642992
              CHANNELS 3 Zrotation Xrotation Yrotation
              JOINT HandTipLeft
              {
                OFFSET -0.066111 -4.471294 -0.728514
                CHANNELS 3 Zrotation Xrotation Yrotation
                End Site
                {
                  OFFSET 0 0 0
                }
              }
              JOINT ThumbLeft
              {
                OFFSET 0.117141 0.896060 -1.630883
                CHANNELS 3 Zrotation Xrotation Yrotation
                End Site
                {
                  OFFSET 0 0 0
                }
              }
            }
          }
        }
      }
      JOINT ShoulderRight
      {
        OFFSET 10.305176 -5.654519 -11.501593
        CHANNELS 3 Zrotation Xrotation Yrotation
        JOINT ElbowRight
        {
          OFFSET 6.706295 -24.467680 -1.351556
          CHANNELS 3 Zrotation Xrotation Yrotation
          JOINT WristRight
          {
            OFFSET 1.945701 -20.292046 0.167017
            CHANNELS 3 Zrotation Xrotation Yrotation
            JOINT HandRight
            {
              OFFSET 0.165444 -7.393167 2.563408
              CHANNELS 3 Zrotation Xrotation Yrotation
              JOINT HandTipRight
              {
                OFFSET -0.079390 -7.427338 -1.773648
                CHANNELS 3 Zrotation Xrotation Yrotation
                End Site
                {
                  OFFSET 0 0 0
                }
              }
              JOINT ThumbRight
              {
                OFFSET -2.798987 1.719440 0.522330
                CHANNELS 3 Zrotation Xrotation Yrotation
                End Site
                {
                  OFFSET 0 0 0
                }
              }
            }
          }
        }
      }
    }
  }
  JOINT HipLeft
  {
    OFFSET -5.508287 1.242447 -0.902609
    CHANNELS 3 Zrotation Xrotation Yrotation
    JOINT KneeLeft
    {
      OFFSET -5.125267 -28.619821 -2.843465
      CHANNELS 3 Zrotation Xrotation Yrotation
      JOINT AnkleLeft
      {
        OFFSET -2.564588 -26.315587 -1.898665
        CHANNELS 3 Zrotation Xrotation Yrotation
        JOINT FootLeft
        {
          OFFSET -1.222354 -5.273824 1.145302
          CHANNELS 3 Zrotation Xrotation Yrotation
          End Site
          {
            OFFSET 0 0 0
          }
        }
      }
    }
  }
  JOINT HipRight
  {
    OFFSET 3.956144 2.024068 -5.671131
    CHANNELS 3 Zrotation Xrotation Yrotation
    JOINT KneeRight
    {
      OFFSET -0.919766 -26.123254 -6.761076
      CHANNELS 3 Zrotation Xrotation Yrotation
      JOINT AnkleRight
      {
        OFFSET -1.388200 -27.700781 -4.108287
        CHANNELS 3 Zrotation Xrotation Yrotation
        JOINT FootRight
        {
          OFFSET -6.879168 -0.849897 -13.746133
          CHANNELS 3 Zrotation Xrotation Yrotation
          End Site
          {
            OFFSET 0 0 0
          }
        }
      }
    }
  }
}
MOTION
Frames: 6
Frame Time: 0.033333
58.051112 59.682521 253.435277 0.176272 0.190864 24.487486 -0.239529 -0.100631 -24.487990 -0.000000 0.000000 0.000000 0.478404 -0.687069 -0.084574 0.000000 0.000000 0.000000 2.807872 2.180556 0.246835 -6.150325 -1.881406 -1.451157 5.926363 6.248196 2.075665 -6.260086 -6.290356 -1.206339 0.000000 0.000000 0.000000 0.000000 0.000000 0.000000 1.262487 -3.926731 -1.101876 -3.911067 -3.664939 0.451144 4.018653 6.609019 0.848385 0.497796 -16.266638 -0.476285 0.000000 0.000000 0.000000 0.000000 0.000000 0.000000 0.516902 0.486921 -24.686636 2.108023 -1.897053 0.173087 -31.809102 81.679621 -3.296078 0.000000 0.000000 0.000000 1.400279 0.994301 -24.827415 -1.028996 -1.681984 0.311530 2.320408 -4.546858 -3.199828 0.000000 0.000000 0.000000
58.059775 59.681730 253.454890 0.162930 0.215052 24.400239 -0.237218 -0.128536 -24.400811 -0.000000 0.000000 0.000000 0.578175 -0.759188 -0.108509 0.000000 0.000000 0.000000 2.827180 2.130066 0.264230 -6.460760 -1.469421 -1.501814 8.455675 3.566466 3.095087 -7.960242 -5.028225 -2.094989 0.000000 0.000000 0.000000 0.000000 0.000000 0.000000 1.185338 -3.747703 -1.053151 -3.936280 -3.374568 0.440122 4.486730 5.512648 0.897064 0.454719 -14.633265 -0.668858 0.000000 0.000000 0.000000 0.000000 0.000000 0.000000 0.492850 0.449596 -24.593472 2.187943 -2.027614 0.182148 -41.737045 83.514189 5.226783 0.000000 0.000000 0.000000 1.405333 0.984360 -24.739652 -1.026550 -1.697875 0.311361 1.780499 -3.241519 -6.008346 0.000000 0.000000 0.000000
58.069211 59.680639 253.469666 0.146105 0.242819 24.330786 -0.233172 -0.161055 -24.331423 -0.000000 0.000000 0.000000 0.649407 -0.864045 -0.120268 0.000000 0.000000 0.000000 2.866533 2.094690 0.283158 -6.567584 -1.315236 -1.520836 9.677507 2.766765 3.619261 -8.393716 -3.272771 -2.606830 0.000000 0.000000 0.000000 0.000000 0.000000 0.000000 1.152824 -3.636536 -1.023095 -4.072078 -3.106449 0.445155 4.986336 4.749879 0.949689 1.107480 -14.352997 -0.913423 0.000000 0.000000 0.000000 0.000000 0.000000 0.000000 0.448731 0.409780 -24.514713 2.280225 -2.197838 0.193879 -60.046169 85.026842 21.939223 0.000000 0.000000 0.000000 1.428784 0.975266 -24.673374 -1.036383 -1.726073 0.314528 2.179627 -4.222823 -3.928313 0.000000 0.000000 0.000000
58.081436 59.676622 253.485312 0.131372 0.258935 24.276172 -0.226214 -0.182026 -24.276828 -0.000000 0.000000 0.000000 0.705990 -0.979527 -0.126332 0.000000 0.000000 0.000000 3.047129 2.121265 0.323699 -6.849810 -1.395390 -1.615107 10.046046 2.170779 3.787290 -7.709439 -1.798421 -2.759967 0.000000 0.000000 0.000000 0.000000 0.000000 0.000000 1.133837 -3.551518 -1.000195 -4.158257 -3.305295 0.400441 5.360753 4.793786 1.012673 1.508434 -14.357054 -1.096071 0.000000 0.000000 0.000000 0.000000 0.000000 0.000000 0.405296 0.391140 -24.451802 2.336402 -2.152809 0.181713 -32.500115 81.268374 -2.672727 0.000000 0.000000 0.000000 1.447191 0.976376 -24.620164 -1.039208 -1.749952 0.315863 2.173204 -4.208296 -3.946028 0.000000 0.000000 0.000000
58.095837 59.665729 253.505379 0.120722 0.274015 24.237780 -0.222572 -0.200300 -24.238458 -0.000000 0.000000 0.000000 0.754692 -1.119233 -0.127450 0.000000 0.000000 0.000000 2.866582 2.024565 0.300374 -6.355615 -1.207009 -1.452293 10.669570 0.863193 4.140484 -7.739357 1.139806 -3.176953 0.000000 0.000000 0.000000 0.000000 0.000000 0.000000 1.084974 -3.492619 -0.983515 -4.126300 -3.812466 0.321200 5.695128 5.490940 1.099459 1.597670 -15.519318 -1.213774 0.000000 0.000000 0.000000 0.000000 0.000000 0.000000 0.364361 0.383108 -24.407157 2.130835 -1.851257 0.152302 -48.923747 84.517670 11.828599 0.000000 0.000000 0.000000 1.490228 1.001856 -24.589010 -0.669925 -2.556280 0.317527 1.790422 -3.457911 -3.943922 0.000000 0.000000 0.000000
58.108942 59.659577 253.542441 0.113644 0.255340 24.197721 -0.208320 -0.186323 -24.198313 -0.000000 0.000000 0.000000 0.781712 -1.208301 -0.126865 0.000000 0.000000 0.000000 2.749000 1.902528 0.299455 -5.955311 -0.982578 -1.322309 11.537737 -0.435444 4.619481 -8.842540 2.764968 -3.546395 0.000000 0.000000 0.000000 0.000000 0.000000 0.000000 1.066342 -3.445309 -0.970549 -3.984911 -4.627052 0.211548 5.175102 7.226295 1.044581 0.978915 -17.094632 -0.916761 0.000000 0.000000 0.000000 0.000000 0.000000 0.000000 0.367097 0.414875 -24.367526 1.965900 -1.846553 0.160211 -50.956225 83.948276 13.460505 0.000000 0.000000 0.000000 1.581941 1.105507 -24.564175 -0.767418 -2.749899 0.340819 1.851949 -3.375595 -3.945710 0.000000 0.000000 0.000000
